<svg xmlns="http://www.w3.org/2000/svg" viewBox="0 0 512 512">
<defs>
 <linearGradient id="bg" x1="0" y1="0" x2="1" y2="1"><stop offset="0" stop-color="#07152f"/><stop offset="1" stop-color="#102b55"/></linearGradient>
 <linearGradient id="gold" x1="0" y1="0" x2="1" y2="1"><stop offset="0" stop-color="#ffd83d"/><stop offset="1" stop-color="#ffb300"/></linearGradient>
</defs>
<rect x="8" y="8" width="496" height="496" rx="92" fill="url(#bg)" stroke="#1769e8" stroke-width="12"/>
<circle cx="256" cy="220" r="164" fill="none" stroke="url(#gold)" stroke-width="10"/>
<!-- graduation cap -->
<path d="M125 145 L256 98 L387 145 L256 192 Z" fill="#2469d8" stroke="#081329" stroke-width="10" stroke-linejoin="round"/>
<path d="M170 158 V205 Q256 245 342 205 V158" fill="#17499d" stroke="#081329" stroke-width="10"/>
<path d="M356 143 Q389 151 389 181 V207" fill="none" stroke="url(#gold)" stroke-width="10" stroke-linecap="round"/>
<circle cx="389" cy="215" r="9" fill="#ffd83d"/>
<path d="M389 224 C376 246 376 265 389 283 C402 265 402 246 389 224Z" fill="url(#gold)"/>
<!-- books -->
<rect x="105" y="265" width="302" height="52" rx="14" fill="#e53935" stroke="#081329" stroke-width="9"/>
<rect x="92" y="319" width="328" height="55" rx="14" fill="#12b8aa" stroke="#081329" stroke-width="9"/>
<rect x="108" y="376" width="296" height="52" rx="14" fill="#1f73dc" stroke="#081329" stroke-width="9"/>
<path d="M135 281 H376 M123 336 H390 M139 393 H372" stroke="#f8f1dc" stroke-width="8" opacity=".9"/>
<!-- open book -->
<path d="M82 414 Q165 389 256 435 Q347 389 430 414 L430 472 Q344 447 256 484 Q168 447 82 472Z" fill="#f7f3e8" stroke="#0b1730" stroke-width="10"/>
<path d="M256 435 V480" stroke="#1b4fa2" stroke-width="7"/>
<text x="256" y="462" text-anchor="middle" font-family="Tahoma,Arial,sans-serif" font-size="26" font-weight="700" fill="#ffbd16" direction="rtl">الطالب الدحيح</text>
</svg>